<svg class="library-logo-svg margin-bottom-two" version="1.1" viewBox="0 0 954 144" xmlns="http://www.w3.org/2000/svg" xmlns:xlink="http://www.w3.org/1999/xlink">
  <title>University of Michigan Library</title>
  <defs>
    <polygon id="b" points="0 143.94 0 0 953.94 0 953.94 143.94" />
  </defs>
  <g fill="none" fill-rule="evenodd">
    <mask id="a" fill="white">
      <use xlink:href="#b" />
    </mask>
    <polyline points="100.6 118.77 59.392 62.459 59.392 103.42 75.776 103.42 75.776 143.87 0 143.87 0 103.42 15.354 103.42 15.354 40.443 0 40.443 0 0 59.525 0 100.6 56.719 141.66 0 201.18 0 201.18 40.443 185.81 40.443 185.81 103.42 201.18 103.42 201.18 143.87 125.41 143.87 125.41 103.42 141.78 103.42 141.78 62.459 100.6 118.77"
    fill="#EBBF28" mask="url(#a)" />
    <polyline points="281.5 144 281.5 0.202 299.82 0.202 299.82 128.07 352.6 128.07 352.6 144 281.5 144" fill="#131D33" mask="url(#a)"
    />
    <polygon points="374.19 143.94 392.51 143.94 392.51 0.202 374.19 0.202" fill="#131D33" mask="url(#a)" />
    <path d="m436.95 128.07h25.892c19.517 0 26.494-13.944 26.494-24.494 0-22.908-14.147-26.891-32.862-26.891h-19.524v51.385zm0-67.32h26.692c14.334-0.2 21.314-8.959 21.314-22.902 0-11.949-6.78-21.71-22.114-21.71h-25.892v44.612zm-18.323 83.253v-143.8h46.808c19.916 0 26.686 6.77 32.062 14.74 4.986 7.768 5.78 16.334 5.78 19.117 0 17.925-6.173 29.88-24.699 34.058v1c20.52 2.39 29.478 14.737 29.478 34.456 0 36.844-26.889 40.427-43.221 40.427h-46.208z"
    fill="#131D33" mask="url(#a)" />
    <path d="m546.11 61.943h27.494c13.148 0 19.521-11.352 19.521-23.903 0-10.354-5.192-21.905-19.329-21.905h-27.686v45.808zm0 15.935v66.122h-18.318v-143.8h49.595c25.494 0 34.449 17.929 34.449 35.851 0 16.928-9.359 29.874-26.292 32.863v0.396c16.526 2.59 22.499 8.166 23.505 37.042 0.202 6.175 2.189 28.682 4.988 37.646h-19.12c-5.186-9.958-3.995-28.677-5.586-47.799-1.398-17.525-15.535-18.323-21.7-18.323h-21.521z"
    fill="#131D33" mask="url(#a)" />
    <path d="m687.23 17.125h-0.4l-22.507 76.686h46.024l-23.117-76.686zm-11.16-16.923h23.307l46.811 143.8h-20.517l-10.351-34.262h-55.567l-10.76 34.262h-18.519l45.596-143.8z"
    fill="#131D33" mask="url(#a)" />
    <path d="m782.3 61.943h27.484c13.141 0 19.51-11.352 19.51-23.903 0-10.354-5.174-21.905-19.313-21.905h-27.681v45.808zm0 15.935v66.122h-18.333v-143.8h49.595c25.488 0 34.459 17.929 34.459 35.851 0 16.928-9.362 29.874-26.294 32.863v0.396c16.53 2.59 22.504 8.166 23.497 37.042 0.214 6.175 2.201 28.682 4.982 37.646h-19.122c-5.172-9.958-3.972-28.677-5.569-47.799-1.395-17.525-15.534-18.323-21.707-18.323h-21.508z"
    fill="#131D33" mask="url(#a)" />
    <polyline points="935.42 0.202 953.94 0.202 914.7 89.231 914.7 144 896.37 144 896.37 89.231 857.74 0.202 878.25 0.202 906.34 69.709 935.42 0.202"
    fill="#131D33" mask="url(#a)" />
    <polygon points="239.54 143.94 242.07 143.94 242.07 0 239.54 0" fill="#131D33" mask="url(#a)" />
  </g>
</svg>
